<?xml version="1.0" encoding="UTF-8"?><svg id="Layer_1" xmlns="http://www.w3.org/2000/svg" viewBox="0 0 792 144"><path d="m28.87,44.37c16.12-7.08,34.54-4.72,50.76.72,17.27,5.79,32.88,15.5,49.29,23.24,15.36,7.25,31.79,12.88,48.99,12.44,8.07-.2,16.06-1.78,23.43-5.1,6.16-2.78,11.2-6.86,15.49-12.06,3.49-4.22,6.88-9.29,4.73-14.94-1.7-4.47-6.04-7.38-10.69-7.99-5.13-.67-10.1,1.69-12.71,6.19-3.07,5.29-2.12,11.88-.77,17.57.64,2.69,1.49,5.53,3.24,7.72,2.47,3.07,5.95,5.09,9.51,6.62,8.16,3.52,16.9,5.5,25.71,6.5,18.11,2.06,36.4-.38,54.29-3.2,18.59-2.94,37.81-7.49,56.71-4.95,15.54,2.09,29.98,9.95,40.37,21.67,2.47,2.79,4.66,5.79,6.61,8.97,1.68,2.74,6.01.23,4.32-2.52-7.82-12.75-19.64-22.72-33.44-28.44-16.31-6.76-33.99-5.93-51.13-3.49-17.36,2.47-34.57,6.07-52.1,7.29-8.64.6-17.34.64-25.95-.37s-16.92-2.89-24.47-6.51c-2.76-1.32-5.87-3.08-7.3-5.91-1.27-2.5-1.82-5.51-2.23-8.25-.67-4.44-.91-9.88,3.28-12.76,2.98-2.05,7.2-1.54,9.9.64,1.37,1.11,2.33,2.64,2.53,4.28.26,2.17-.84,4-2.05,5.8-3.29,4.9-7.79,9.26-12.96,12.09-6.72,3.69-14.33,5.56-21.95,6.02-16.17.96-31.86-3.88-46.41-10.53-30.17-13.81-61.15-36.16-96.18-28.81-3.92.82-7.68,2.11-11.34,3.72-2.94,1.29-.4,5.6,2.52,4.32h0Z" fill="#006873" stroke-width="0"/><path d="m765.66,40.06c-15.59-6.85-32.95-6.02-49.07-1.49s-31.72,13.25-47.02,21.02-29.97,14.33-46.54,15.87c-13.96,1.3-29.91-.92-40.36-11.09-2.14-2.08-4.19-4.32-5.85-6.81-1.2-1.78-2.31-3.73-2.06-5.77.44-3.55,3.99-5.93,7.33-6.21,4.23-.36,7.72,2.55,8.6,6.79.5,2.42.12,5.25-.28,7.7-.43,2.6-.96,5.41-2.16,7.77-1.52,2.99-4.9,4.82-7.84,6.16-3.77,1.72-7.8,2.97-11.8,3.99-8.34,2.14-16.93,3-25.52,3.05-17.44.11-34.69-2.91-51.84-5.71-17.7-2.89-36.06-6.05-53.82-1.82-14.42,3.44-27.74,11.71-37.29,23.03-2.31,2.74-4.42,5.65-6.29,8.71-1.69,2.75,2.64,5.26,4.32,2.52,8-13.04,20.66-23.09,35.19-27.91,17.94-5.95,37.05-2.9,55.24.06s36.17,6.23,54.49,6.11c8.91-.06,17.88-.96,26.54-3.15,4.17-1.06,8.28-2.4,12.24-4.1,3.73-1.61,7.48-3.78,9.91-7.13,1.55-2.14,2.32-4.9,2.91-7.44.74-3.18,1.23-6.52,1.19-9.79-.06-5.32-2.83-10.64-7.86-12.82-8.86-3.84-21.57,4.2-17.61,14.5,2.15,5.61,7.05,10.66,11.65,14.39,5.73,4.66,13.12,7.49,20.3,8.95,16.27,3.32,33.23.13,48.5-5.82,17.08-6.66,32.72-16.35,49.44-23.79,15.68-6.99,33.61-12.09,50.87-9.04,4.11.73,8.16,1.88,11.99,3.57,2.92,1.28,5.47-3.02,2.52-4.32h0Z" fill="#006873" stroke-width="0"/></svg>