<?xml version="1.0" encoding="UTF-8"?><svg id="Layer_1" xmlns="http://www.w3.org/2000/svg" viewBox="0 0 32 32"><circle cx="16" cy="16" r="16" fill="#0f6e7f" stroke-width="0"/><path d="m5.89,13.42c0-1.26.95-2.25,2.18-2.25.88,0,1.6.58,1.51,1.62-.63.31-.99.9-.99,1.64,0,.9.68,1.35,1.74,1.35,1.4,0,2.41-1.87,2.41-4.46,0-1.17-.41-2.12-1.92-2.12h-.59l.04-.14h.58c1.64,0,2.97-1.91,2.97-4.25,0-1.04-.45-1.62-1.35-1.62-1.26,0-2.07.79-2.07,1.75,0,.45.23.77.56.94-.23,1.01-1.1,1.51-1.91,1.51-.76,0-1.44-.41-1.44-1.37,0-1.78,1.96-2.97,4.89-2.97,2.46,0,4.8.47,4.8,2.37,0,2.11-2.01,3.44-5.61,3.69v.04c2.37,0,4.97.45,4.97,2.61,0,2.52-2.52,4.17-6.33,4.17-1.48,0-4.43-.38-4.43-2.5Z" fill="#ffd167" stroke-width="0"/><path d="m13.23,24.98c0-2.02,1.69-3.44,3.71-3.44,1.67,0,3.54,1.06,3.54,2.86,0,1.31-.99,2.23-2.29,2.23s-1.96-1.03-1.64-2.12c1.08-.02,1.67-.85,1.67-1.6,0-.61-.36-1.19-1.42-1.19-1.71,0-2.84,1.35-2.84,3.26,0,2.02,1.53,3.8,4.79,3.8s4.66-1.58,4.66-3.35c0-3.33-6.84-3.67-6.84-7.7,0-2.5,2.55-3.89,5.22-3.89,2.39,0,4.32.92,4.32,2.74,0,1.55-1.17,2.25-2.21,2.25-.9,0-1.87-.59-1.64-1.89.88-.2,1.28-.83,1.28-1.48,0-.7-.41-1.44-1.73-1.44-1.44,0-2.39.76-2.39,2,0,2.75,6.58,3.26,6.58,7.29,0,3.27-3.08,5.65-7.25,5.65-3.8,0-5.52-1.87-5.52-3.98Z" fill="#ffd167" stroke-width="0"/></svg>