<?xml version="1.0" encoding="UTF-8"?><svg id="Layer_1" xmlns="http://www.w3.org/2000/svg" viewBox="0 0 16 16"><circle cx="8" cy="8" r="7.88" fill="#0f6e7f" stroke-width="0"/><path d="m5.41,5.52v.06c.21-.02.44-.03.63-.03,1.53,0,2.19.76,2.19,1.67,0,2.04-2.1,2.8-3.88,2.8-1.54,0-2.05-.65-2.05-1.41,0-.65.46-1.29,1.27-1.29.62,0,.83.36.83.78,0,.2-.04.42-.12.62h-.48c-.17.2-.25.4-.25.58,0,.28.2.48.6.48.87,0,1.69-.83,1.69-2.4,0-1.14-.31-1.5-.93-1.5-.26,0-.55.04-.91.19l-.04-.21c1.48-.48,2.21-1.16,2.21-2.49,0-.76-.36-1.16-.85-1.16-.43,0-.6.25-.6.62,0,.16.03.3.09.46h.47c.01.08.01.17.01.25,0,.64-.37,1.12-1.14,1.12-.66,0-.93-.48-.93-.89,0-1.09,1.07-1.8,3.03-1.8,1.61,0,2.21.57,2.21,1.5,0,1.15-1.5,1.7-3.06,2.09Z" fill="#ffd167" stroke-width="0"/><path d="m11.92,12.36c0-.94-.68-1.19-1.74-1.58-.5-.19-1.59-.64-1.59-2.19,0-1.73,1.34-2.63,2.74-2.63,1.05,0,1.64.47,1.86.47.14,0,.22-.17.35-.37h.17l-.36,2.42h-.15c-.16-1.67-.73-2.29-1.78-2.29-.89,0-1.42.55-1.42,1.31,0,.84.68,1.09,1.23,1.3.95.37,2.21.72,2.21,2.37,0,1.81-1.38,2.86-2.93,2.86-1.14,0-1.98-.49-2.25-.49-.15,0-.22.21-.38.54h-.18l.43-2.74h.19c.06,1.43.7,2.46,2.13,2.46,1,0,1.48-.57,1.48-1.43Z" fill="#ffd167" stroke-width="0"/></svg>